<svg width="200" height="50" viewBox="0 0 200 50" fill="none" xmlns="http://www.w3.org/2000/svg">
<rect x="0.138889" y="0.138889" width="199.722" height="49.7222" rx="9.02778" fill="white" stroke="black" stroke-width="0.277778"/>
<path d="M69.4434 42.2513C68.5547 42.2513 67.7273 42.2207 67.1451 42.1594V38.6354C67.7273 38.666 68.4015 38.6967 68.9837 38.6967C69.8724 38.6967 70.6078 38.6047 71.1594 37.1645L71.4352 36.4597L65.4597 19.3604H70.2094L73.7028 31.6179H73.8867L77.4107 19.3604H82.2218L75.7253 37.8386C74.7754 40.5046 72.9674 42.2513 69.4434 42.2513ZM91.3537 36.3371C86.3281 36.3371 83.2024 32.8743 83.2024 27.7262C83.2024 22.578 86.3281 19.1459 91.3537 19.1459C96.3792 19.1459 99.5356 22.578 99.5356 27.7262C99.5356 32.8743 96.3792 36.3371 91.3537 36.3371ZM91.3843 32.813C93.7132 32.813 94.9083 30.6373 94.9083 27.7262C94.9083 24.7844 93.7132 22.6087 91.3843 22.6087C89.0247 22.6087 87.799 24.7844 87.799 27.7262C87.799 30.6373 89.0247 32.813 91.3843 32.813ZM113.049 28.9213V19.3604H117.585V36H113.233V32.9969H113.049C112.283 34.9275 110.506 36.2145 107.993 36.2145C104.653 36.2145 102.385 33.8549 102.385 29.9632V19.3604H106.921V29.1664C106.921 31.1276 108.055 32.384 109.832 32.384C111.487 32.384 113.049 31.1889 113.049 28.9213ZM129.873 19.3604V22.7619H126.747V30.8825C126.747 32.2002 127.391 32.5373 128.31 32.5679C128.77 32.5679 129.566 32.5373 130.118 32.476V36.0613C129.628 36.1532 128.831 36.2145 127.697 36.2145C124.418 36.2145 122.181 34.7436 122.212 31.526V22.7619H119.914V19.3604H122.212V15.3767H126.747V19.3604H129.873ZM143.387 28.9213V19.3604H147.922V36H143.571V32.9969H143.387C142.621 34.9275 140.843 36.2145 138.331 36.2145C134.99 36.2145 132.723 33.8549 132.723 29.9632V19.3604H137.258V29.1664C137.258 31.1276 138.392 32.384 140.169 32.384C141.824 32.384 143.387 31.1889 143.387 28.9213ZM151.538 36V13.8139H156.073V22.149H156.196C156.839 20.8007 158.157 19.1459 160.946 19.1459C164.623 19.1459 167.718 21.9958 167.718 27.6955C167.718 33.2421 164.746 36.2758 160.946 36.2758C158.218 36.2758 156.839 34.713 156.196 33.334H156.012V36H151.538ZM155.981 27.6649C155.981 30.668 157.268 32.6598 159.505 32.6598C161.834 32.6598 163.06 30.6067 163.06 27.6649C163.06 24.7537 161.834 22.7619 159.505 22.7619C157.238 22.7619 155.981 24.6618 155.981 27.6649ZM178.168 36.3371C173.081 36.3371 169.955 33.0276 169.955 27.7568C169.955 22.6087 173.111 19.1459 177.984 19.1459C182.366 19.1459 185.798 21.9039 185.798 27.573V28.86H174.429C174.429 31.3728 175.931 32.9356 178.259 32.9356C179.792 32.9356 180.895 32.2615 181.354 31.2502H185.675C185.032 34.3146 182.274 36.3371 178.168 36.3371ZM174.429 26.0101H181.508C181.508 23.9876 180.098 22.5474 178.076 22.5474C175.992 22.5474 174.506 24.0949 174.429 26.0101Z" fill="black"/>
<path d="M43.8938 40.2711H18.8845C13.9777 40.2711 10 36.2933 10 31.3865V18.8845C10 13.9778 13.9777 10 18.8845 10H43.8938C48.8006 10 52.7783 13.9778 52.7783 18.8845V31.3865C52.7783 36.2933 48.8006 40.2711 43.8938 40.2711ZM37.8853 24.5273L26.1876 18.9482C25.8759 18.7995 25.5159 19.0268 25.5159 19.3721V30.879C25.5159 31.2292 25.8854 31.4561 26.1977 31.2978L37.8954 25.37C38.2432 25.1938 38.2372 24.695 37.8853 24.5273Z" fill="#F61C0D"/>
</svg>
