<svg width="202" height="50" viewBox="0 0 202 50" fill="none" xmlns="http://www.w3.org/2000/svg">
<rect x="0.138889" y="0.138889" width="201.722" height="49.7222" rx="9.02778" fill="white" stroke="black" stroke-width="0.277778"/>
<path d="M55.9806 31.3421C55.9806 27.6342 58.9837 26.4085 62.1706 26.2246C63.3658 26.148 65.6028 26.0408 66.3076 26.0101V24.6618C66.2769 23.2828 65.327 22.4554 63.6416 22.4554C62.1094 22.4554 61.1288 23.1603 60.8836 24.2941H56.5628C56.8386 21.4136 59.3514 19.1459 63.7641 19.1459C67.3801 19.1459 70.8122 20.77 70.8122 24.7844V36H66.5221V33.7017H66.3995C65.5721 35.2339 64.0093 36.3064 61.5271 36.3064C58.3402 36.3064 55.9806 34.6517 55.9806 31.3421ZM60.332 31.2196C60.332 32.5066 61.3739 33.1808 62.8142 33.1808C64.8673 33.1808 66.3382 31.8018 66.3076 30.0551V28.8294C65.6181 28.86 63.6875 28.9672 62.9061 29.0439C61.3433 29.1971 60.332 29.9325 60.332 31.2196ZM74.3669 36V13.8139H78.9022V22.149H79.0247C79.6683 20.8007 80.9859 19.1459 83.7745 19.1459C87.4518 19.1459 90.5468 21.9958 90.5468 27.6955C90.5468 33.2421 87.5744 36.2758 83.7745 36.2758C81.0472 36.2758 79.6683 34.713 79.0247 33.334H78.8409V36H74.3669ZM78.8102 27.6649C78.8102 30.668 80.0973 32.6598 82.3343 32.6598C84.6632 32.6598 85.8889 30.6067 85.8889 27.6649C85.8889 24.7537 84.6632 22.7619 82.3343 22.7619C80.0666 22.7619 78.8102 24.6618 78.8102 27.6649ZM100.935 36.3371C95.9095 36.3371 92.7838 32.8743 92.7838 27.7262C92.7838 22.578 95.9095 19.1459 100.935 19.1459C105.961 19.1459 109.117 22.578 109.117 27.7262C109.117 32.8743 105.961 36.3371 100.935 36.3371ZM100.966 32.813C103.295 32.813 104.49 30.6373 104.49 27.7262C104.49 24.7844 103.295 22.6087 100.966 22.6087C98.6061 22.6087 97.3804 24.7844 97.3804 27.7262C97.3804 30.6373 98.6061 32.813 100.966 32.813ZM122.631 28.9213V19.3604H127.166V36H122.815V32.9969H122.631C121.865 34.9275 120.087 36.2145 117.575 36.2145C114.234 36.2145 111.967 33.8549 111.967 29.9632V19.3604H116.502V29.1664C116.502 31.1276 117.636 32.384 119.413 32.384C121.068 32.384 122.631 31.1889 122.631 28.9213ZM139.454 19.3604V22.7619H136.329V30.8825C136.329 32.2002 136.972 32.5373 137.891 32.5679C138.351 32.5679 139.148 32.5373 139.699 32.476V36.0613C139.209 36.1532 138.412 36.2145 137.279 36.2145C134 36.2145 131.763 34.7436 131.793 31.526V22.7619H129.495V19.3604H131.793V15.3767H136.329V19.3604H139.454ZM149.536 36V19.3604H153.857V22.2716H154.041C154.746 20.341 156.431 19.1459 158.668 19.1459C160.966 19.1459 162.652 20.341 163.203 22.2716H163.356C164.061 20.3717 165.931 19.1459 168.382 19.1459C171.477 19.1459 173.622 21.199 173.622 24.815V36H169.087V25.7037C169.087 23.8038 167.984 22.8845 166.482 22.8845C164.766 22.8845 163.785 24.0796 163.785 25.8263V36H159.373V25.5811C159.373 23.9263 158.331 22.8845 156.799 22.8845C155.266 22.8845 154.071 24.1102 154.071 26.0101V36H149.536ZM184.654 36.3371C179.567 36.3371 176.441 33.0276 176.441 27.7568C176.441 22.6087 179.598 19.1459 184.47 19.1459C188.852 19.1459 192.284 21.9039 192.284 27.573V28.86H180.915C180.915 31.3728 182.417 32.9356 184.746 32.9356C186.278 32.9356 187.381 32.2615 187.841 31.2502H192.162C191.518 34.3146 188.76 36.3371 184.654 36.3371ZM180.915 26.0101H187.994C187.994 23.9876 186.584 22.5474 184.562 22.5474C182.478 22.5474 180.992 24.0949 180.915 26.0101Z" fill="black"/>
<path d="M8 11.0135C8 9.34919 9.34918 8 11.0135 8H38.9865C40.6508 8 42 9.34918 42 11.0135V38.9865C42 40.6508 40.6508 42 38.9865 42H11.0135C9.34919 42 8 40.6508 8 38.9865V11.0135Z" fill="#F5DF4D"/>
<path d="M27.4565 15.9924C27.4565 15.2326 28.0725 14.6166 28.8323 14.6166H41.9999V23.5261H30.9941C29.0404 23.5261 27.4565 21.9423 27.4565 19.9885V15.9924Z" fill="black"/>
<path d="M22.4775 15.9924C22.4775 15.2326 21.8616 14.6166 21.1018 14.6166H7.9997V23.5261H18.6124C20.7471 23.5261 22.4775 21.7956 22.4775 19.661V15.9924Z" fill="black"/>
<rect x="28.9634" y="26.8015" width="4.45472" height="4.45472" rx="2.06424" fill="#161616"/>
<rect x="16.189" y="26.8015" width="4.45472" height="4.45472" rx="2.06424" fill="#161616"/>
<path d="M12.5205 36.9557C12.5205 36.2683 13.0778 35.711 13.7652 35.711H36.3664C37.0538 35.711 37.6111 36.2683 37.6111 36.9557V38.0694C37.6111 39.3719 36.5552 40.4278 35.2527 40.4278H14.8789C13.5764 40.4278 12.5205 39.3719 12.5205 38.0694V36.9557Z" fill="#161616"/>
</svg>
