<svg width="130" height="51" viewBox="0 0 130 51" fill="none" xmlns="http://www.w3.org/2000/svg">
<path d="M13.6694 6.55664H17.7246V19.1787C17.7246 23.4487 14.502 26.2686 9.66797 26.2686C4.83398 26.2686 1.63818 23.4487 1.63818 19.1787V6.55664H5.6665V18.8564C5.6665 21.0854 7.25098 22.7236 9.66797 22.7236C12.1118 22.7236 13.6694 21.0854 13.6694 18.8564V6.55664ZM20.9204 26V6.55664H24.895V17.0034H25.1099L29.8364 11.4175H34.4019L28.977 17.7285L34.6973 26H30.0244L26.0229 20.0649L24.895 21.3271V26H20.9204ZM36.2549 11.4175H40.2295V26.7251C40.2295 30.082 38.1616 31.4785 34.751 31.4785L33.9453 31.4517V28.3364C34.1602 28.3364 34.2944 28.3633 34.4824 28.3633C35.7715 28.3633 36.2549 27.7725 36.2549 26.6714V11.4175ZM38.2153 9.51074C37.0068 9.51074 36.04 8.59766 36.04 7.49658C36.04 6.36865 37.0068 5.45557 38.2153 5.45557C39.397 5.45557 40.3638 6.36865 40.3638 7.49658C40.3638 8.59766 39.397 9.51074 38.2153 9.51074ZM42.6196 21.918C42.6196 18.6685 45.2515 17.5942 48.0444 17.4331C49.0918 17.366 51.0522 17.272 51.6699 17.2451V16.0635C51.6431 14.855 50.8105 14.1299 49.3335 14.1299C47.9907 14.1299 47.1313 14.7476 46.9165 15.7412H43.1299C43.3716 13.2168 45.5737 11.2295 49.4409 11.2295C52.6099 11.2295 55.6177 12.6528 55.6177 16.1709V26H51.8579V23.9858H51.7505C51.0254 25.3286 49.6558 26.2686 47.4805 26.2686C44.6875 26.2686 42.6196 24.8184 42.6196 21.918ZM46.4331 21.8105C46.4331 22.9385 47.3462 23.5293 48.6084 23.5293C50.4077 23.5293 51.6968 22.3208 51.6699 20.79V19.7158C51.0657 19.7427 49.3738 19.8367 48.689 19.9038C47.3193 20.0381 46.4331 20.6826 46.4331 21.8105ZM65.2588 26.2954C60.8008 26.2954 58.0615 23.395 58.0615 18.7759C58.0615 14.2642 60.8276 11.2295 65.0977 11.2295C68.938 11.2295 71.9458 13.6465 71.9458 18.6147V19.7427H61.9824C61.9824 21.9448 63.2983 23.3145 65.3394 23.3145C66.6821 23.3145 67.6489 22.7236 68.0518 21.8374H71.8384C71.2744 24.5229 68.8574 26.2954 65.2588 26.2954ZM61.9824 17.2451H68.186C68.186 15.4727 66.9507 14.2105 65.1782 14.2105C63.352 14.2105 62.0496 15.5667 61.9824 17.2451ZM80.8618 26V6.55664H84.8901V15.1772H85.1587L92.2217 6.55664H97.0825L89.8315 15.2578L97.1631 26H92.3291L86.9311 17.9702L84.8901 20.4409V26H80.8618ZM99.9292 26V11.4175H103.904V26H99.9292ZM101.916 9.51074C100.708 9.51074 99.7412 8.59766 99.7412 7.49658C99.7412 6.36865 100.708 5.45557 101.916 5.45557C103.098 5.45557 104.065 6.36865 104.065 7.49658C104.065 8.59766 103.098 9.51074 101.916 9.51074ZM106.992 26V11.4175H110.779V13.9688H110.94C111.558 12.2769 113.035 11.2295 114.995 11.2295C117.009 11.2295 118.486 12.2769 118.97 13.9688H119.104C119.722 12.3037 121.36 11.2295 123.508 11.2295C126.221 11.2295 128.101 13.0288 128.101 16.1978V26H124.126V16.9766C124.126 15.3115 123.159 14.5059 121.843 14.5059C120.339 14.5059 119.48 15.5532 119.48 17.084V26H115.613V16.8691C115.613 15.4189 114.7 14.5059 113.357 14.5059C112.014 14.5059 110.967 15.5801 110.967 17.2451V26H106.992Z" fill="white"/>
<path d="M8.16943 33.8345C8.16943 37.5405 5.54297 40.1348 1.27295 41.2627L0.660644 40.0542C4.14111 39.1519 6.25195 37.3472 6.52588 35.0591H1.46631V33.8345H8.16943ZM12.5039 32.9482V41.0693H10.9731V32.9482H12.5039ZM12.5039 41.7139V47.1763H3.04541V41.7139H12.5039ZM4.56006 42.9385V45.9517H11.0054V42.9385H4.56006ZM27.9565 39.877V41.1016H22.1235V42.6968H26.3452V47.3696H24.7983V43.9053H16.2583V42.6968H20.6089V41.1016H14.792V39.877H27.9565ZM21.3662 33.2544C24.5244 33.2383 26.5225 34.3018 26.5225 36.0742C26.5225 37.8145 24.5244 38.8779 21.3662 38.8618C18.208 38.8779 16.21 37.8145 16.21 36.0742C16.21 34.3018 18.208 33.2383 21.3662 33.2544ZM21.3662 34.4629C19.1426 34.4468 17.7729 35.0591 17.7891 36.0742C17.7729 37.0732 19.1426 37.6533 21.3662 37.6533C23.5737 37.6533 24.9434 37.0732 24.9434 36.0742C24.9434 35.0591 23.5737 34.4468 21.3662 34.4629ZM41.5239 32.9321V47.3696H40.0576V39.9575H38.3335V46.6606H36.8833V33.2061H38.3335V38.6685H40.0576V32.9321H41.5239ZM33.4351 36.751C33.4351 39.3452 34.418 41.6978 36.5127 42.7773L35.6103 43.9536C34.1924 43.1882 33.2417 41.8428 32.7261 40.167C32.2346 42.0684 31.2759 43.583 29.8096 44.4531L28.8589 43.293C30.9697 42.1006 31.9526 39.6191 31.9526 36.751V35.8164H29.2456V34.5757H35.9487V35.8164H33.4351V36.751Z" fill="#9A9A9A"/>
</svg>
