<svg width="395" height="395" viewBox="0 0 395 395" fill="none" xmlns="http://www.w3.org/2000/svg">
<g filter="url(#filter0_d_877_3)">
<path d="M49 75.3237C49 60.7855 60.7855 49 75.3237 49H319.676C334.214 49 346 60.7855 346 75.3237V319.676C346 334.214 334.214 346 319.676 346H75.3237C60.7855 346 49 334.214 49 319.676V75.3237Z" fill="#F5DF4D"/>
<path d="M218.96 118.816C218.96 112.179 224.34 106.799 230.977 106.799H346V184.625H249.861C232.795 184.625 218.96 170.79 218.96 153.724V118.816Z" fill="black"/>
<path d="M175.468 118.816C175.468 112.179 170.088 106.799 163.451 106.799H49.0001V184.625H141.705C160.352 184.625 175.468 169.509 175.468 150.862V118.816Z" fill="black"/>
<rect x="232.121" y="213.236" width="38.9133" height="38.9133" rx="18.0317" fill="#161616"/>
<rect x="120.532" y="213.236" width="38.9133" height="38.9133" rx="18.0317" fill="#161616"/>
<path d="M88.4856 301.936C88.4856 295.931 93.3535 291.063 99.3584 291.063H296.786C302.791 291.063 307.659 295.931 307.659 301.936V311.665C307.659 323.042 298.436 332.266 287.058 332.266H109.087C97.7091 332.266 88.4856 323.042 88.4856 311.665V301.936Z" fill="#161616"/>
</g>
<defs>
<filter id="filter0_d_877_3" x="0.400002" y="0.400002" width="394.2" height="394.2" filterUnits="userSpaceOnUse" color-interpolation-filters="sRGB">
<feFlood flood-opacity="0" result="BackgroundImageFix"/>
<feColorMatrix in="SourceAlpha" type="matrix" values="0 0 0 0 0 0 0 0 0 0 0 0 0 0 0 0 0 0 127 0" result="hardAlpha"/>
<feOffset/>
<feGaussianBlur stdDeviation="24.3"/>
<feComposite in2="hardAlpha" operator="out"/>
<feColorMatrix type="matrix" values="0 0 0 0 0 0 0 0 0 0 0 0 0 0 0 0 0 0 0.35 0"/>
<feBlend mode="normal" in2="BackgroundImageFix" result="effect1_dropShadow_877_3"/>
<feBlend mode="normal" in="SourceGraphic" in2="effect1_dropShadow_877_3" result="shape"/>
</filter>
</defs>
</svg>
