<svg width="159" height="50" viewBox="0 0 159 50" fill="none" xmlns="http://www.w3.org/2000/svg">
<rect x="0.138889" y="0.138889" width="158.722" height="49.7222" rx="9.02778" fill="white" stroke="black" stroke-width="0.277778"/>
<path d="M61.0059 41.9773C56.4093 41.9773 53.5901 39.9242 53.3143 36.7679H57.7883C58.0334 38.0856 59.2898 38.6984 61.0978 38.6984C63.2122 38.6984 64.6219 37.8098 64.6219 35.4808V32.4471H64.4074C63.7945 33.7954 62.3236 35.1438 59.6576 35.1438C55.8884 35.1438 52.8853 32.5084 52.8853 26.9619C52.8853 21.3234 55.9803 18.5348 59.6576 18.5348C62.4461 18.5348 63.7945 20.1896 64.4074 21.5379H64.5912V18.7493H69.0959V35.5728C69.0959 39.8016 65.725 41.9773 61.0059 41.9773ZM61.0672 31.7423C63.3348 31.7423 64.6219 29.965 64.6219 27.0232C64.6219 24.0507 63.3348 22.1508 61.0672 22.1508C58.7689 22.1508 57.5431 24.1426 57.5431 27.0232C57.5431 29.9037 58.7689 31.7423 61.0672 31.7423ZM72.6199 35.3889V18.7493H77.1552V35.3889H72.6199ZM74.8875 16.5736C73.5086 16.5736 72.4054 15.5317 72.4054 14.2753C72.4054 12.9883 73.5086 11.9464 74.8875 11.9464C76.2359 11.9464 77.339 12.9883 77.339 14.2753C77.339 15.5317 76.2359 16.5736 74.8875 16.5736ZM89.4433 18.7493V22.1508H86.3177V30.2714C86.3177 31.5891 86.9612 31.9262 87.8805 31.9568C88.3402 31.9568 89.1369 31.9262 89.6885 31.8649V35.4502C89.1982 35.5421 88.4014 35.6034 87.2676 35.6034C83.9887 35.6034 81.7517 34.1325 81.7824 30.9149V22.1508H79.4841V18.7493H81.7824V14.7656H86.3177V18.7493H89.4433ZM97.1962 25.7668V35.3889H92.6609V13.2028H97.0736V21.6605H97.2575C98.0236 19.7299 99.709 18.5348 102.222 18.5348C105.685 18.5348 107.983 20.8638 107.983 24.7862V35.3889H103.448V25.5829C103.448 23.5298 102.344 22.304 100.444 22.304C98.5445 22.304 97.1962 23.5604 97.1962 25.7668ZM122.14 28.3102V18.7493H126.676V35.3889H122.324V32.3858H122.14C121.374 34.3164 119.597 35.6034 117.084 35.6034C113.744 35.6034 111.476 33.2439 111.476 29.3521V18.7493H116.012V28.5553C116.012 30.5166 117.145 31.7729 118.923 31.7729C120.577 31.7729 122.14 30.5778 122.14 28.3102ZM130.292 35.3889V13.2028H134.827V21.5379H134.949C135.593 20.1896 136.911 18.5348 139.699 18.5348C143.376 18.5348 146.471 21.3847 146.471 27.0844C146.471 32.631 143.499 35.6647 139.699 35.6647C136.972 35.6647 135.593 34.1019 134.949 32.7229H134.766V35.3889H130.292ZM134.735 27.0538C134.735 30.0569 136.022 32.0487 138.259 32.0487C140.588 32.0487 141.814 29.9956 141.814 27.0538C141.814 24.1426 140.588 22.1508 138.259 22.1508C135.991 22.1508 134.735 24.0507 134.735 27.0538Z" fill="black"/>
</svg>
