<svg width="934" height="360" viewBox="0 0 934 360" fill="none" xmlns="http://www.w3.org/2000/svg">
<path d="M98.4199 48.0078H127.617V138.887C127.617 169.631 104.414 189.934 69.6094 189.934C34.8047 189.934 11.7949 169.631 11.7949 138.887V48.0078H40.7988V136.566C40.7988 152.615 52.207 164.41 69.6094 164.41C87.2051 164.41 98.4199 152.615 98.4199 136.566V48.0078ZM150.627 188V48.0078H179.244V123.225H180.791L214.822 83.0059H247.693L208.635 128.445L249.82 188H216.176L187.365 145.268L179.244 154.355V188H150.627ZM261.035 83.0059H289.652V193.221C289.652 217.391 274.764 227.445 250.207 227.445L244.406 227.252V204.822C245.953 204.822 246.92 205.016 248.273 205.016C257.555 205.016 261.035 200.762 261.035 192.834V83.0059ZM275.15 69.2773C266.449 69.2773 259.488 62.7031 259.488 54.7754C259.488 46.6543 266.449 40.0801 275.15 40.0801C283.658 40.0801 290.619 46.6543 290.619 54.7754C290.619 62.7031 283.658 69.2773 275.15 69.2773ZM306.861 158.609C306.861 135.213 325.811 127.479 345.92 126.318C353.461 125.835 367.576 125.158 372.023 124.965V116.457C371.83 107.756 365.836 102.535 355.201 102.535C345.533 102.535 339.346 106.982 337.799 114.137H310.535C312.275 95.9609 328.131 81.6523 355.975 81.6523C378.791 81.6523 400.447 91.9004 400.447 117.23V188H373.377V173.498H372.604C367.383 183.166 357.521 189.934 341.859 189.934C321.75 189.934 306.861 179.492 306.861 158.609ZM334.318 157.836C334.318 165.957 340.893 170.211 349.98 170.211C362.936 170.211 372.217 161.51 372.023 150.488V142.754C367.673 142.947 355.491 143.624 350.561 144.107C340.699 145.074 334.318 149.715 334.318 157.836ZM469.863 190.127C437.766 190.127 418.043 169.244 418.043 135.986C418.043 103.502 437.959 81.6523 468.703 81.6523C496.354 81.6523 518.01 99.0547 518.01 134.826V142.947H446.273C446.273 158.803 455.748 168.664 470.443 168.664C480.111 168.664 487.072 164.41 489.973 158.029H517.236C513.176 177.365 495.773 190.127 469.863 190.127ZM446.273 124.965H490.939C490.939 112.203 482.045 103.115 469.283 103.115C456.135 103.115 446.757 112.88 446.273 124.965ZM582.205 188V48.0078H611.209V110.076H613.143L663.996 48.0078H698.994L646.787 110.656L699.574 188H664.77L625.904 130.186L611.209 147.975V188H582.205ZM719.49 188V83.0059H748.107V188H719.49ZM733.799 69.2773C725.098 69.2773 718.137 62.7031 718.137 54.7754C718.137 46.6543 725.098 40.0801 733.799 40.0801C742.307 40.0801 749.268 46.6543 749.268 54.7754C749.268 62.7031 742.307 69.2773 733.799 69.2773ZM770.344 188V83.0059H797.607V101.375H798.768C803.215 89.1934 813.85 81.6523 827.965 81.6523C842.467 81.6523 853.102 89.1934 856.582 101.375H857.549C861.996 89.3867 873.791 81.6523 889.26 81.6523C908.789 81.6523 922.324 94.6074 922.324 117.424V188H893.707V123.031C893.707 111.043 886.746 105.242 877.271 105.242C866.443 105.242 860.256 112.783 860.256 123.805V188H832.412V122.258C832.412 111.816 825.838 105.242 816.17 105.242C806.502 105.242 798.961 112.977 798.961 124.965V188H770.344Z" fill="black"/>
<path d="M58.8199 242.408C58.8199 269.092 39.9094 287.77 9.16523 295.891L4.75664 287.19C29.816 280.693 45.0141 267.7 46.9863 251.225H10.5574V242.408H58.8199ZM90.0281 236.027V294.499H79.0066V236.027H90.0281ZM90.0281 299.14V338.469H21.927V299.14H90.0281ZM32.8324 307.957V329.652H79.2387V307.957H32.8324ZM201.287 285.914V294.731H159.289V306.217H189.686V339.861H178.548V314.918H117.06V306.217H148.384V294.731H106.502V285.914H201.287ZM153.837 238.232C176.576 238.116 190.962 245.773 190.962 258.534C190.962 271.064 176.576 278.721 153.837 278.605C131.098 278.721 116.712 271.064 116.712 258.534C116.712 245.773 131.098 238.116 153.837 238.232ZM153.837 246.933C137.827 246.817 127.965 251.225 128.081 258.534C127.965 265.727 137.827 269.904 153.837 269.904C169.731 269.904 179.592 265.727 179.592 258.534C179.592 251.225 169.731 246.817 153.837 246.933ZM298.972 235.911V339.861H288.415V286.494H276.001V334.757H265.56V237.884H276.001V277.213H288.415V235.911H298.972ZM240.732 263.407C240.732 282.086 247.809 299.024 262.891 306.797L256.395 315.266C246.185 309.755 239.34 300.068 235.628 288.002C232.089 301.692 225.186 312.598 214.629 318.863L207.784 310.509C222.982 301.924 230.059 284.058 230.059 263.407V256.678H210.568V247.745H258.831V256.678H240.732V263.407Z" fill="#686868"/>
</svg>
