<svg width="246" height="50" viewBox="0 0 246 50" fill="none" xmlns="http://www.w3.org/2000/svg">
<rect x="0.361057" y="0.138889" width="245.278" height="49.7222" rx="9.02778" fill="white" stroke="black" stroke-width="0.277778"/>
<path d="M99.2505 24.683C99.0667 23.5185 98.0248 22.7524 96.5233 22.7524C95.0523 22.7524 93.9185 23.4572 93.9492 24.4685C93.9185 25.2039 94.5314 25.7862 96.0942 26.1232L99.0667 26.7361C102.284 27.4103 103.847 28.8505 103.878 31.2408C103.847 34.5196 100.905 36.726 96.4926 36.726C91.988 36.726 89.3526 34.7035 88.9849 31.4553H93.5508C93.7653 32.7729 94.8378 33.4471 96.4926 33.4471C98.1474 33.4471 99.2505 32.7729 99.2505 31.7004C99.2505 30.8424 98.5457 30.3214 96.9829 29.9844L94.225 29.4328C91.0687 28.8199 89.4139 27.1651 89.4445 24.7136C89.4139 21.5267 92.1718 19.5348 96.462 19.5348C100.66 19.5348 103.265 21.5267 103.51 24.683H99.2505ZM114.143 36.726C109.118 36.726 105.992 33.2632 105.992 28.1151C105.992 22.9669 109.118 19.5348 114.143 19.5348C119.169 19.5348 122.325 22.9669 122.325 28.1151C122.325 33.2632 119.169 36.726 114.143 36.726ZM114.174 33.202C116.503 33.202 117.698 31.0263 117.698 28.1151C117.698 25.1733 116.503 22.9976 114.174 22.9976C111.815 22.9976 110.589 25.1733 110.589 28.1151C110.589 31.0263 111.815 33.202 114.174 33.202ZM129.71 14.2028V36.3889H125.175V14.2028H129.71ZM148.679 19.7493L142.826 36.3889H137.739L131.917 19.7493H136.697L140.191 31.7004H140.375L143.868 19.7493H148.679ZM157.872 36.726C152.785 36.726 149.66 33.4165 149.66 28.1457C149.66 22.9976 152.816 19.5348 157.688 19.5348C162.07 19.5348 165.502 22.2928 165.502 27.9619V29.2489H154.134C154.134 31.7617 155.635 33.3245 157.964 33.3245C159.496 33.3245 160.599 32.6504 161.059 31.6391H165.38C164.736 34.7035 161.978 36.726 157.872 36.726ZM154.134 26.399H161.212C161.212 24.3765 159.803 22.9363 157.78 22.9363C155.696 22.9363 154.21 24.4838 154.134 26.399ZM174.481 36.6647C170.681 36.6647 167.709 33.631 167.709 28.0844C167.709 22.3847 170.804 19.5348 174.481 19.5348C177.27 19.5348 178.587 21.1896 179.2 22.5379H179.353V14.2028H183.889V36.3889H179.415V33.7229H179.2C178.557 35.1019 177.178 36.6647 174.481 36.6647ZM175.891 33.0487C178.158 33.0487 179.445 31.0569 179.445 28.0538C179.445 25.0507 178.158 23.1508 175.891 23.1508C173.592 23.1508 172.367 25.1426 172.367 28.0538C172.367 30.9956 173.592 33.0487 175.891 33.0487ZM190.201 36.6647C188.761 36.6647 187.597 35.5002 187.627 34.0906C187.597 32.681 188.761 31.5472 190.201 31.5472C191.55 31.5472 192.745 32.681 192.745 34.0906C192.745 35.5002 191.55 36.6647 190.201 36.6647ZM195.595 31.7311C195.595 28.0232 198.598 26.7974 201.785 26.6135C202.98 26.5369 205.217 26.4297 205.922 26.399V25.0507C205.891 23.6717 204.941 22.8444 203.256 22.8444C201.723 22.8444 200.743 23.5492 200.498 24.683H196.177C196.453 21.8025 198.965 19.5348 203.378 19.5348C206.994 19.5348 210.426 21.159 210.426 25.1733V36.3889H206.136V34.0906H206.014C205.186 35.6228 203.623 36.6954 201.141 36.6954C197.954 36.6954 195.595 35.0406 195.595 31.7311ZM199.946 31.6085C199.946 32.8955 200.988 33.5697 202.428 33.5697C204.481 33.5697 205.952 32.1907 205.922 30.444V29.2183C205.232 29.2489 203.302 29.3562 202.52 29.4328C200.957 29.586 199.946 30.3214 199.946 31.6085ZM221.366 36.726C216.279 36.726 213.215 33.202 213.215 28.1151C213.215 23.0282 216.31 19.5348 221.366 19.5348C225.656 19.5348 228.567 22.0476 228.751 25.8475H224.492C224.216 24.1927 223.143 23.0589 221.427 23.0589C219.252 23.0589 217.811 24.8975 217.811 28.0538C217.811 31.2714 219.221 33.11 221.427 33.11C223.021 33.11 224.216 32.1294 224.492 30.3521H228.751C228.537 34.1213 225.779 36.726 221.366 36.726Z" fill="black"/>
<path d="M63.0335 8.36389H14.508C11.0672 8.36389 8.27783 11.1532 8.27783 14.5941V35.4725C8.27783 38.9133 11.0672 41.7027 14.508 41.7027H63.0335C66.4743 41.7027 69.2637 38.9133 69.2637 35.4725V14.5941C69.2637 11.1532 66.4743 8.36389 63.0335 8.36389Z" fill="#17CE3A"/>
<path d="M22.7306 31.4602L28.425 18.6012C28.8171 17.7151 29.545 17.1779 30.5239 17.1779H30.7343C31.7145 17.1779 32.4151 17.7151 32.8111 18.6012L38.5054 31.4602C38.6188 31.6849 38.6825 31.9314 38.6923 32.1829C38.6961 32.4084 38.655 32.6325 38.5713 32.8419C38.4877 33.0514 38.3631 33.2421 38.205 33.4029C38.0468 33.5638 37.8582 33.6915 37.6502 33.7787C37.4422 33.8658 37.2188 33.9107 36.9933 33.9107C36.1542 33.9107 35.5936 33.4193 35.2668 32.673L34.1703 30.1062H26.9821L25.8385 32.7893C25.708 33.1219 25.4798 33.407 25.184 33.6072C24.8881 33.8074 24.5385 33.9132 24.1813 33.9107C23.9616 33.9111 23.744 33.8677 23.5412 33.7831C23.3385 33.6984 23.1546 33.5743 23.0003 33.4178C22.8461 33.2614 22.7245 33.0757 22.6427 32.8718C22.561 32.6678 22.5207 32.4497 22.5241 32.23C22.5379 31.9617 22.6083 31.6994 22.7306 31.4602ZM32.8346 26.9329L30.571 21.5418L28.3074 26.9329H32.8346Z" fill="white"/>
<path d="M39.7266 25.6553V25.6082C39.7266 20.9646 43.2266 17.1614 48.2439 17.1614C50.6944 17.1614 52.3516 17.8149 53.7043 18.8173C53.9221 18.9852 54.0985 19.2008 54.22 19.4475C54.3414 19.6943 54.4047 19.9656 54.4048 20.2406C54.4045 20.4723 54.3582 20.7016 54.2687 20.9153C54.1792 21.1291 54.0481 21.3229 53.8832 21.4856C53.7183 21.6484 53.5227 21.7768 53.3078 21.8635C53.0929 21.9501 52.863 21.9934 52.6313 21.9906C52.2464 21.9867 51.8719 21.8649 51.5583 21.6416C50.5546 20.8941 49.5038 20.4745 48.2204 20.4745C45.4667 20.4745 43.484 22.7617 43.484 25.5612V25.6082C43.484 28.409 45.4209 30.7406 48.2152 30.7406C49.7325 30.7406 50.7362 30.274 51.7622 29.4571C51.9281 29.3083 52.1222 29.1942 52.333 29.1217C52.5437 29.0493 52.7669 29.0199 52.9893 29.0352C53.2117 29.0506 53.4287 29.1105 53.6275 29.2113C53.8262 29.3122 54.0028 29.4519 54.1466 29.6222C54.2904 29.7925 54.3985 29.9899 54.4646 30.2028C54.5306 30.4157 54.5533 30.6397 54.5312 30.8615C54.5091 31.0833 54.4426 31.2984 54.3359 31.494C54.2291 31.6897 54.0841 31.8619 53.9095 32.0005C52.4392 33.2839 50.7127 34.0537 48.0988 34.0537C43.2971 34.055 39.7266 30.3485 39.7266 25.6553Z" fill="white"/>
</svg>
