<svg width="128" height="50" viewBox="0 0 128 50" fill="none" xmlns="http://www.w3.org/2000/svg">
<rect x="0.138889" y="0.138889" width="127.722" height="49.7222" rx="9.02778" fill="white" stroke="black" stroke-width="0.277778"/>
<path d="M56.7773 36V19.3604H61.0981V22.2716H61.282C61.9868 20.341 63.6722 19.1459 65.9092 19.1459C68.2075 19.1459 69.8929 20.341 70.4445 22.2716H70.5977C71.3025 20.3717 73.1718 19.1459 75.6233 19.1459C78.7183 19.1459 80.8634 21.199 80.8634 24.815V36H76.3281V25.7037C76.3281 23.8038 75.2249 22.8845 73.7234 22.8845C72.0073 22.8845 71.0267 24.0796 71.0267 25.8263V36H66.614V25.5811C66.614 23.9263 65.5721 22.8845 64.0399 22.8845C62.5077 22.8845 61.3126 24.1102 61.3126 26.0101V36H56.7773ZM91.8951 36.3371C86.8083 36.3371 83.6826 33.0276 83.6826 27.7568C83.6826 22.6087 86.8389 19.1459 91.7113 19.1459C96.0933 19.1459 99.5254 21.9039 99.5254 27.573V28.86H88.1566C88.1566 31.3728 89.6581 32.9356 91.9871 32.9356C93.5192 32.9356 94.6224 32.2615 95.0821 31.2502H99.4029C98.7593 34.3146 96.0014 36.3371 91.8951 36.3371ZM88.1566 26.0101H95.2353C95.2353 23.9876 93.8257 22.5474 91.8032 22.5474C89.7194 22.5474 88.2332 24.0949 88.1566 26.0101ZM106.298 29.0132C106.328 25.2134 107.34 24.0183 109.178 22.8845C110.496 22.0264 111.507 21.0765 111.507 19.6669C111.507 18.1347 110.312 17.1234 108.841 17.1234C107.401 17.1234 106.083 18.0734 106.022 19.8814H101.67C101.762 15.5606 104.949 13.5075 108.872 13.5075C113.131 13.5075 116.165 15.7445 116.165 19.5136C116.165 22.0264 114.878 23.6506 112.855 24.8457C111.139 25.8875 110.373 26.8681 110.343 29.0132V29.3503H106.298V29.0132ZM108.412 36.2758C106.972 36.2758 105.807 35.1113 105.838 33.7017C105.807 32.2921 106.972 31.1583 108.412 31.1583C109.76 31.1583 110.956 32.2921 110.956 33.7017C110.956 35.1113 109.76 36.2758 108.412 36.2758Z" fill="black"/>
<path d="M8 11.0135C8 9.34919 9.34918 8 11.0135 8H38.9865C40.6508 8 42 9.34918 42 11.0135V38.9865C42 40.6508 40.6508 42 38.9865 42H11.0135C9.34919 42 8 40.6508 8 38.9865V11.0135Z" fill="#F5DF4D"/>
<path d="M27.4565 15.9924C27.4565 15.2326 28.0725 14.6166 28.8323 14.6166H41.9999V23.5261H30.9941C29.0404 23.5261 27.4565 21.9423 27.4565 19.9885V15.9924Z" fill="black"/>
<path d="M22.4775 15.9924C22.4775 15.2326 21.8616 14.6166 21.1018 14.6166H7.9997V23.5261H18.6124C20.7471 23.5261 22.4775 21.7956 22.4775 19.661V15.9924Z" fill="black"/>
<rect x="28.9634" y="26.8015" width="4.45472" height="4.45472" rx="2.06424" fill="#161616"/>
<rect x="16.189" y="26.8015" width="4.45472" height="4.45472" rx="2.06424" fill="#161616"/>
<path d="M12.5205 36.9557C12.5205 36.2683 13.0778 35.711 13.7652 35.711H36.3664C37.0538 35.711 37.6111 36.2683 37.6111 36.9557V38.0694C37.6111 39.3719 36.5552 40.4278 35.2527 40.4278H14.8789C13.5764 40.4278 12.5205 39.3719 12.5205 38.0694V36.9557Z" fill="#161616"/>
</svg>
