<svg width="133" height="39" viewBox="0 0 133 39" fill="none" xmlns="http://www.w3.org/2000/svg">
<path d="M4.4446 14.9366L4.4539 10.1841H5.03052L9.60633 4.76191H14.1542L8.00666 11.9418H7.06732L4.4446 14.9366ZM0.854632 19.0474V8.95979e-05H4.81661V19.0474H0.854632ZM9.78304 19.0474L5.57925 12.8254L8.22057 10.0259L14.424 19.0474H9.78304ZM19.688 14.9366L19.6973 10.1841H20.2739L24.8497 4.76191H29.3976L23.2501 11.9418H22.3107L19.688 14.9366ZM16.098 19.0474V8.95979e-05H20.06V19.0474H16.098ZM25.0264 19.0474L20.8226 12.8254L23.464 10.0259L29.6674 19.0474H25.0264ZM31.3414 19.0474V4.76191H35.1825V7.25442H35.3313C35.5917 6.36778 36.0288 5.69815 36.6427 5.24553C37.2565 4.78671 37.9633 4.5573 38.7632 4.5573C38.9616 4.5573 39.1755 4.5697 39.4049 4.5945C39.6343 4.6193 39.8358 4.6534 40.0094 4.6968V8.21237C39.8234 8.15656 39.5661 8.10696 39.2375 8.06356C38.9089 8.02016 38.6082 7.99846 38.3354 7.99846C37.7525 7.99846 37.2317 8.12556 36.7729 8.37977C36.3203 8.62779 35.9606 8.975 35.694 9.42142C35.4336 9.86784 35.3034 10.3825 35.3034 10.9653V19.0474H31.3414ZM47.9032 19.3264C46.4337 19.3264 45.1688 19.0288 44.1086 18.4335C43.0545 17.8321 42.2423 16.9827 41.6719 15.8852C41.1014 14.7816 40.8162 13.4764 40.8162 11.9697C40.8162 10.5003 41.1014 9.21061 41.6719 8.10076C42.2423 6.99091 43.0452 6.12597 44.0807 5.50594C45.1223 4.88591 46.3438 4.5759 47.7451 4.5759C48.6875 4.5759 49.5648 4.72781 50.3771 5.03162C51.1955 5.32923 51.9085 5.77875 52.5162 6.38018C53.13 6.98161 53.6074 7.73804 53.9484 8.64949C54.2895 9.55473 54.46 10.615 54.46 11.8302V12.9184H42.3973V10.4631H50.7305C50.7305 9.89264 50.6065 9.38732 50.3585 8.9471C50.1105 8.50688 49.7663 8.16276 49.3261 7.91475C48.8921 7.66054 48.3868 7.53344 47.8102 7.53344C47.2087 7.53344 46.6755 7.67294 46.2105 7.95195C45.7517 8.22477 45.392 8.59368 45.1316 9.0587C44.8712 9.51753 44.7379 10.029 44.7317 10.5933V12.9277C44.7317 13.6345 44.8619 14.2452 45.1223 14.7599C45.3889 15.2745 45.7641 15.6713 46.2477 15.9503C46.7313 16.2293 47.3048 16.3688 47.9683 16.3688C48.4085 16.3688 48.8115 16.3068 49.1773 16.1828C49.5431 16.0588 49.8563 15.8728 50.1167 15.6248C50.3771 15.3768 50.5755 15.073 50.7119 14.7134L54.3763 14.9552C54.1903 15.8356 53.8089 16.6045 53.2323 17.2617C52.6619 17.9127 51.924 18.4211 51.0188 18.787C50.1198 19.1466 49.0812 19.3264 47.9032 19.3264ZM57.0455 24.4044V4.76191H60.9517V7.16142H61.1284C61.302 6.777 61.5531 6.38638 61.8817 5.98956C62.2165 5.58655 62.6505 5.25173 63.1838 4.98512C63.7232 4.71231 64.3928 4.5759 65.1927 4.5759C66.2343 4.5759 67.1953 4.84871 68.0758 5.39434C68.9562 5.93376 69.66 6.7491 70.187 7.84035C70.714 8.9254 70.9775 10.2864 70.9775 11.9232C70.9775 13.5167 70.7202 14.8622 70.2056 15.9596C69.6972 17.0509 69.0027 17.8786 68.1223 18.4428C67.248 19.0009 66.2684 19.2799 65.1834 19.2799C64.4145 19.2799 63.7604 19.1528 63.221 18.8986C62.6877 18.6443 62.2506 18.325 61.9096 17.9406C61.5686 17.55 61.3082 17.1563 61.1284 16.7595H61.0075V24.4044H57.0455ZM60.9238 11.9046C60.9238 12.7541 61.0416 13.495 61.2772 14.1274C61.5128 14.7599 61.8538 15.2528 62.3002 15.6062C62.7466 15.9534 63.2892 16.127 63.9278 16.127C64.5726 16.127 65.1183 15.9503 65.5647 15.5969C66.0111 15.2373 66.349 14.7413 66.5784 14.1088C66.814 13.4702 66.9318 12.7355 66.9318 11.9046C66.9318 11.08 66.8171 10.3546 66.5877 9.72834C66.3583 9.10211 66.0204 8.61228 65.574 8.25887C65.1276 7.90545 64.5788 7.72874 63.9278 7.72874C63.283 7.72874 62.7373 7.89925 62.2909 8.24027C61.8507 8.58128 61.5128 9.06491 61.2772 9.69113C61.0416 10.3174 60.9238 11.0552 60.9238 11.9046ZM73.6188 24.4044V4.76191H77.525V7.16142H77.7017C77.8753 6.777 78.1265 6.38638 78.4551 5.98956C78.7899 5.58655 79.2239 5.25173 79.7571 4.98512C80.2966 4.71231 80.9662 4.5759 81.766 4.5759C82.8077 4.5759 83.7687 4.84871 84.6492 5.39434C85.5296 5.93376 86.2333 6.7491 86.7603 7.84035C87.2874 8.9254 87.5509 10.2864 87.5509 11.9232C87.5509 13.5167 87.2936 14.8622 86.7789 15.9596C86.2705 17.0509 85.5761 17.8786 84.6957 18.4428C83.8214 19.0009 82.8418 19.2799 81.7567 19.2799C80.9879 19.2799 80.3338 19.1528 79.7943 18.8986C79.2611 18.6443 78.824 18.325 78.483 17.9406C78.142 17.55 77.8815 17.1563 77.7017 16.7595H77.5808V24.4044H73.6188ZM77.4971 11.9046C77.4971 12.7541 77.6149 13.495 77.8505 14.1274C78.0862 14.7599 78.4272 15.2528 78.8736 15.6062C79.32 15.9534 79.8625 16.127 80.5012 16.127C81.146 16.127 81.6916 15.9503 82.138 15.5969C82.5845 15.2373 82.9224 14.7413 83.1518 14.1088C83.3874 13.4702 83.5052 12.7355 83.5052 11.9046C83.5052 11.08 83.3905 10.3546 83.1611 9.72834C82.9317 9.10211 82.5938 8.61228 82.1473 8.25887C81.7009 7.90545 81.1522 7.72874 80.5012 7.72874C79.8563 7.72874 79.3107 7.89925 78.8643 8.24027C78.4241 8.58128 78.0862 9.06491 77.8505 9.69113C77.6149 10.3174 77.4971 11.0552 77.4971 11.9046ZM94.2658 19.3171C93.3543 19.3171 92.5421 19.159 91.8291 18.8428C91.116 18.5203 90.5518 18.046 90.1364 17.4198C89.7272 16.7874 89.5226 15.9999 89.5226 15.0575C89.5226 14.2638 89.6683 13.5973 89.9597 13.0579C90.2511 12.5185 90.6479 12.0844 91.1501 11.7558C91.6524 11.4272 92.2228 11.1792 92.8614 11.0118C93.5063 10.8444 94.1821 10.7266 94.8889 10.6584C95.7198 10.5716 96.3894 10.491 96.8978 10.4166C97.4062 10.336 97.7752 10.2182 98.0046 10.0632C98.234 9.90814 98.3487 9.67873 98.3487 9.37492V9.31912C98.3487 8.73009 98.1627 8.27437 97.7907 7.95195C97.4248 7.62954 96.904 7.46833 96.2282 7.46833C95.5151 7.46833 94.9478 7.62644 94.5262 7.94265C94.1046 8.25267 93.8256 8.64329 93.6892 9.11451L90.0248 8.81689C90.2108 7.94885 90.5766 7.19862 91.1222 6.56619C91.6679 5.92756 92.3716 5.43774 93.2334 5.09672C94.1015 4.74951 95.1059 4.5759 96.2468 4.5759C97.0404 4.5759 97.8 4.6689 98.5254 4.85491C99.257 5.04092 99.9049 5.32923 100.469 5.71985C101.04 6.11047 101.489 6.61269 101.818 7.22652C102.146 7.83415 102.311 8.56268 102.311 9.41212V19.0474H98.5533V17.0664H98.4417C98.2123 17.5128 97.9054 17.9065 97.5209 18.2475C97.1365 18.5823 96.6746 18.8459 96.1352 19.0381C95.5958 19.2241 94.9726 19.3171 94.2658 19.3171ZM95.4004 16.5828C95.9833 16.5828 96.4979 16.468 96.9443 16.2386C97.3907 16.003 97.741 15.6868 97.9953 15.29C98.2495 14.8932 98.3766 14.4437 98.3766 13.9414V12.4255C98.2526 12.5061 98.0821 12.5805 97.8651 12.6487C97.6542 12.7107 97.4155 12.7696 97.1489 12.8254C96.8823 12.875 96.6157 12.9215 96.3491 12.9649C96.0825 13.0021 95.8407 13.0362 95.6237 13.0672C95.1586 13.1354 94.7525 13.2439 94.4053 13.3927C94.0581 13.5415 93.7884 13.743 93.5962 13.9972C93.4039 14.2452 93.3078 14.5553 93.3078 14.9273C93.3078 15.4667 93.5032 15.879 93.8938 16.1642C94.2906 16.4432 94.7928 16.5828 95.4004 16.5828ZM117.27 8.83549L113.643 9.0587C113.581 8.74869 113.448 8.46968 113.243 8.22167C113.039 7.96746 112.769 7.76595 112.434 7.61714C112.106 7.46213 111.712 7.38463 111.253 7.38463C110.639 7.38463 110.121 7.51483 109.7 7.77525C109.278 8.02946 109.067 8.37047 109.067 8.79829C109.067 9.13931 109.204 9.42762 109.477 9.66323C109.749 9.89884 110.218 10.088 110.881 10.2306L113.467 10.7514C114.855 11.0366 115.891 11.4954 116.573 12.1278C117.255 12.7603 117.596 13.5911 117.596 14.6204C117.596 15.5566 117.32 16.3781 116.768 17.085C116.223 17.7918 115.472 18.3436 114.517 18.7404C113.569 19.1311 112.474 19.3264 111.234 19.3264C109.343 19.3264 107.837 18.9327 106.714 18.1452C105.598 17.3516 104.944 16.2727 104.752 14.9087L108.649 14.7041C108.767 15.2807 109.052 15.7209 109.505 16.0247C109.957 16.3223 110.537 16.4711 111.244 16.4711C111.938 16.4711 112.496 16.3378 112.918 16.0712C113.346 15.7984 113.563 15.4481 113.569 15.0203C113.563 14.6607 113.411 14.3661 113.113 14.1367C112.815 13.9011 112.357 13.7213 111.737 13.5973L109.263 13.1044C107.868 12.8254 106.829 12.3418 106.147 11.6535C105.471 10.9653 105.133 10.088 105.133 9.0215C105.133 8.10386 105.381 7.31332 105.877 6.64989C106.38 5.98646 107.083 5.47494 107.989 5.11532C108.9 4.75571 109.966 4.5759 111.188 4.5759C112.992 4.5759 114.412 4.95722 115.448 5.71985C116.489 6.48249 117.097 7.52103 117.27 8.83549ZM131.977 8.83549L128.35 9.0587C128.288 8.74869 128.154 8.46968 127.95 8.22167C127.745 7.96746 127.475 7.76595 127.14 7.61714C126.812 7.46213 126.418 7.38463 125.959 7.38463C125.345 7.38463 124.828 7.51483 124.406 7.77525C123.985 8.02946 123.774 8.37047 123.774 8.79829C123.774 9.13931 123.91 9.42762 124.183 9.66323C124.456 9.89884 124.924 10.088 125.587 10.2306L128.173 10.7514C129.562 11.0366 130.597 11.4954 131.279 12.1278C131.961 12.7603 132.302 13.5911 132.302 14.6204C132.302 15.5566 132.026 16.3781 131.474 17.085C130.929 17.7918 130.179 18.3436 129.224 18.7404C128.275 19.1311 127.181 19.3264 125.941 19.3264C124.05 19.3264 122.543 18.9327 121.421 18.1452C120.305 17.3516 119.651 16.2727 119.458 14.9087L123.355 14.7041C123.473 15.2807 123.758 15.7209 124.211 16.0247C124.663 16.3223 125.243 16.4711 125.95 16.4711C126.644 16.4711 127.202 16.3378 127.624 16.0712C128.052 15.7984 128.269 15.4481 128.275 15.0203C128.269 14.6607 128.117 14.3661 127.819 14.1367C127.522 13.9011 127.063 13.7213 126.443 13.5973L123.969 13.1044C122.574 12.8254 121.535 12.3418 120.853 11.6535C120.178 10.9653 119.84 10.088 119.84 9.0215C119.84 8.10386 120.088 7.31332 120.584 6.64989C121.086 5.98646 121.79 5.47494 122.695 5.11532C123.606 4.75571 124.673 4.5759 125.894 4.5759C127.698 4.5759 129.118 4.95722 130.154 5.71985C131.195 6.48249 131.803 7.52103 131.977 8.83549ZM1.424 26.3678H9.74969V27.3559H1.424V26.3678ZM5.95678e-05 35.3474H11.8711V36.3499H5.95678e-05V35.3474ZM9.24114 26.3678H10.4181V27.9806C10.4181 28.62 10.4084 29.2641 10.389 29.9131C10.3793 30.5525 10.3357 31.2354 10.2582 31.9619C10.1807 32.6787 10.05 33.4875 9.86593 34.3884L8.65994 34.2721C8.85367 33.4294 8.98929 32.6545 9.06678 31.9473C9.15396 31.2305 9.20239 30.5476 9.21208 29.8986C9.23145 29.2496 9.24114 28.6103 9.24114 27.9806V26.3678ZM9.53174 30.0003V30.9157L1.23511 31.3516L1.06075 30.3636L9.53174 30.0003ZM13.8024 33.9379H14.6742C15.4685 33.9379 16.2532 33.9186 17.0281 33.8798C17.8127 33.8314 18.6554 33.7297 19.5563 33.5747L19.658 34.5627C18.7378 34.7274 17.8805 34.834 17.0862 34.8824C16.3016 34.9211 15.4976 34.9405 14.6742 34.9405H13.8024V33.9379ZM13.7734 26.4841H18.452V31.0465H14.9648V34.3593H13.8024V30.073H17.2896V27.4721H13.7734V26.4841ZM23.3632 25.0311H24.511V38.1807H23.3632V25.0311ZM19.0768 29.7533H21.2127V30.7559H19.0768V29.7533ZM20.7042 25.3507H21.8375V37.4833H20.7042V25.3507ZM26.8928 26.4405H34.2159V27.4285H26.8928V26.4405ZM26.7185 34.926L26.5732 33.9089C27.3578 33.9089 28.215 33.904 29.145 33.8944C30.0749 33.875 31.029 33.8411 32.0074 33.7926C32.9857 33.7345 33.9205 33.6522 34.8117 33.5456L34.8843 34.4465C33.9738 34.5918 33.0342 34.6983 32.0655 34.7662C31.0968 34.834 30.1524 34.8775 29.2321 34.8969C28.3216 34.9163 27.4837 34.926 26.7185 34.926ZM28.3022 27.196H29.4792V34.185H28.3022V27.196ZM31.6296 27.196H32.792V34.185H31.6296V27.196ZM35.6253 25.0311H36.8313V38.1807H35.6253V25.0311ZM36.5553 30.2909H38.9818V31.2935H36.5553V30.2909ZM45.3593 25.9319H46.42V26.949C46.42 27.5205 46.3183 28.063 46.1149 28.5764C45.9211 29.0898 45.6499 29.5693 45.3012 30.0148C44.9622 30.4507 44.565 30.8431 44.1097 31.1918C43.6641 31.5405 43.1847 31.8359 42.6713 32.0781C42.1676 32.3203 41.6542 32.5043 41.1311 32.6302L40.5935 31.6277C41.0487 31.5308 41.504 31.3807 41.9593 31.1772C42.4243 30.9738 42.8602 30.7268 43.267 30.4362C43.6738 30.1359 44.0322 29.8017 44.3422 29.4336C44.6619 29.0655 44.9089 28.6732 45.0832 28.2567C45.2673 27.8305 45.3593 27.3946 45.3593 26.949V25.9319ZM45.5918 25.9319H46.6234V26.949C46.6234 27.3946 46.7154 27.8305 46.8995 28.2567C47.0835 28.6732 47.3306 29.0655 47.6405 29.4336C47.9602 29.8017 48.3234 30.1359 48.7303 30.4362C49.1371 30.7268 49.5682 30.9787 50.0234 31.1918C50.4884 31.3952 50.9534 31.5405 51.4183 31.6277L50.8662 32.6302C50.3431 32.5043 49.8297 32.3203 49.326 32.0781C48.8223 31.8359 48.3428 31.5405 47.8875 31.1918C47.4419 30.8431 47.0448 30.4507 46.6961 30.0148C46.3474 29.5693 46.0761 29.0898 45.8824 28.5764C45.6887 28.063 45.5918 27.5205 45.5918 26.949V25.9319ZM40.0995 35.4055H52.0141V36.408H40.0995V35.4055Z" fill="white"/>
</svg>
