<svg width="131" height="51" viewBox="0 0 131 51" fill="none" xmlns="http://www.w3.org/2000/svg">
<path d="M13.7596 6.42842H17.8415V19.1337C17.8415 23.4319 14.5976 26.2703 9.73172 26.2703C4.86586 26.2703 1.64899 23.4319 1.64899 19.1337V6.42842H5.70387V18.8093C5.70387 21.053 7.29879 22.702 9.73172 22.702C12.1917 22.702 13.7596 21.053 13.7596 18.8093V6.42842ZM21.0584 26V6.42842H25.0592V16.9441H25.2754L30.0332 11.3213H34.6287L29.1681 17.674L34.9261 26H30.2224L26.1946 20.0258L25.0592 21.2963V26H21.0584ZM36.494 11.3213H40.4948V26.7299C40.4948 30.1089 38.4133 31.5146 34.9801 31.5146L34.1692 31.4876V28.3518C34.3854 28.3518 34.5206 28.3789 34.7098 28.3789C36.0074 28.3789 36.494 27.7841 36.494 26.6758V11.3213ZM38.4673 9.40201C37.2509 9.40201 36.2777 8.4829 36.2777 7.37456C36.2777 6.2392 37.2509 5.32009 38.4673 5.32009C39.6568 5.32009 40.6299 6.2392 40.6299 7.37456C40.6299 8.4829 39.6568 9.40201 38.4673 9.40201ZM42.9007 21.8911C42.9007 18.6201 45.5499 17.5388 48.3613 17.3766C49.4155 17.309 51.3889 17.2144 52.0107 17.1874V15.998C51.9836 14.7815 51.1456 14.0516 49.6588 14.0516C48.3072 14.0516 47.4421 14.6734 47.2259 15.6736H43.4143C43.6576 13.1325 45.8743 11.1321 49.767 11.1321C52.9568 11.1321 55.9844 12.5648 55.9844 16.1061V26H52.1999V23.9726H52.0918C51.3619 25.3242 49.9832 26.2703 47.7936 26.2703C44.9822 26.2703 42.9007 24.8106 42.9007 21.8911ZM46.7393 21.7829C46.7393 22.9183 47.6584 23.513 48.9289 23.513C50.7401 23.513 52.0377 22.2965 52.0107 20.7557V19.6744C51.4024 19.7014 49.6994 19.796 49.01 19.8636C47.6314 19.9988 46.7393 20.6476 46.7393 21.7829ZM65.6891 26.2974C61.2017 26.2974 58.4444 23.3778 58.4444 18.7282C58.4444 14.1868 61.2288 11.1321 65.5269 11.1321C69.3926 11.1321 72.4202 13.565 72.4202 18.566V19.7014H62.3912C62.3912 21.9181 63.7158 23.2967 65.7702 23.2967C67.1219 23.2967 68.095 22.702 68.5005 21.81H72.3121C71.7444 24.5132 69.3115 26.2974 65.6891 26.2974ZM62.3912 17.1874H68.6357C68.6357 15.4032 67.3922 14.1327 65.608 14.1327C63.7698 14.1327 62.4587 15.4978 62.3912 17.1874ZM81.395 26V6.42842H85.4499V15.1059H85.7203L92.8298 6.42842H97.7227L90.4239 15.187L97.8038 26H92.938L87.5044 17.9173L85.4499 20.4043V26H81.395ZM100.588 26V11.3213H104.589V26H100.588ZM102.589 9.40201C101.372 9.40201 100.399 8.4829 100.399 7.37456C100.399 6.2392 101.372 5.32009 102.589 5.32009C103.778 5.32009 104.751 6.2392 104.751 7.37456C104.751 8.4829 103.778 9.40201 102.589 9.40201ZM107.698 26V11.3213H111.509V13.8894H111.672C112.293 12.1864 113.78 11.1321 115.753 11.1321C117.781 11.1321 119.268 12.1864 119.754 13.8894H119.889C120.511 12.2134 122.16 11.1321 124.323 11.1321C127.053 11.1321 128.945 12.9433 128.945 16.1331V26H124.945V16.9171C124.945 15.241 123.971 14.4301 122.647 14.4301C121.133 14.4301 120.268 15.4843 120.268 17.0252V26H116.375V16.8089C116.375 15.3492 115.456 14.4301 114.104 14.4301C112.753 14.4301 111.699 15.5114 111.699 17.1874V26H107.698Z" fill="black"/>
<path d="M8.22331 33.7542C8.22331 37.4847 5.57952 40.0961 1.28134 41.2315L0.665001 40.015C4.16842 39.1067 6.29318 37.2901 6.56891 34.9869H1.47598V33.7542H8.22331ZM12.5864 32.8622V41.0368H11.0455V32.8622H12.5864ZM12.5864 41.6856V47.184H3.06549V41.6856H12.5864ZM4.59013 42.9183V45.9513H11.0779V42.9183H4.59013ZM28.1409 39.8366V41.0693H22.2694V42.675H26.5189V47.3787H24.9619V43.8915H16.3655V42.675H20.7448V41.0693H14.8895V39.8366H28.1409ZM21.5071 33.1703C24.6861 33.1541 26.6974 34.2246 26.6974 36.0088C26.6974 37.7605 24.6861 38.831 21.5071 38.8147C18.3281 38.831 16.3169 37.7605 16.3169 36.0088C16.3169 34.2246 18.3281 33.1541 21.5071 33.1703ZM21.5071 34.3868C19.2688 34.3706 17.8902 34.9869 17.9064 36.0088C17.8902 37.0144 19.2688 37.5983 21.5071 37.5983C23.7292 37.5983 25.1078 37.0144 25.1078 36.0088C25.1078 34.9869 23.7292 34.3706 21.5071 34.3868ZM41.7977 32.846V47.3787H40.3218V39.9177H38.5863V46.665H37.1265V33.1217H38.5863V38.6201H40.3218V32.846H41.7977ZM33.6555 36.69C33.6555 39.3013 34.6449 41.6694 36.7535 42.7561L35.8452 43.9401C34.4179 43.1697 33.4609 41.8154 32.9419 40.1285C32.4472 42.0424 31.4821 43.5671 30.0061 44.4429L29.0492 43.2751C31.174 42.0749 32.1633 39.5771 32.1633 36.69V35.7493H29.4385V34.5003H36.1858V35.7493H33.6555V36.69Z" fill="#686868"/>
</svg>
