<svg width="151" height="52" viewBox="0 0 151 52" fill="none" xmlns="http://www.w3.org/2000/svg">
<rect x="0.5" y="0.5" width="150" height="51" rx="12.5" fill="white"/>
<rect x="0.5" y="0.5" width="150" height="51" rx="12.5" stroke="#DEDEDE"/>
<circle cx="26" cy="26" r="15" fill="#5865F2"/>
<path d="M31.7093 20.6725C30.5513 20.1247 29.3131 19.7267 28.0186 19.5C27.8597 19.7906 27.6739 20.1814 27.5459 20.4923C26.1698 20.2831 24.8064 20.2831 23.4557 20.4923C23.3276 20.1814 23.1377 19.7906 22.9773 19.5C21.6814 19.7267 20.4418 20.1262 19.2839 20.6754C16.9482 24.2437 16.3151 27.7233 16.6316 31.1536C18.1808 32.3232 19.6821 33.0336 21.158 33.4986C21.5224 32.9915 21.8474 32.4525 22.1274 31.8844C21.5942 31.6795 21.0834 31.4267 20.6008 31.1333C20.7289 31.0374 20.8541 30.9371 20.9751 30.834C23.9186 32.2258 27.1167 32.2258 30.0251 30.834C30.1475 30.9371 30.2727 31.0374 30.3993 31.1333C29.9153 31.4282 29.4032 31.681 28.8699 31.8859C29.1499 32.4525 29.4735 32.993 29.8393 33.5C31.3167 33.0351 32.8194 32.3246 34.3685 31.1536C34.74 27.1771 33.734 23.7294 31.7093 20.6725ZM22.5284 29.044C21.6448 29.044 20.9202 28.2101 20.9202 27.1945C20.9202 26.1789 21.6294 25.3435 22.5284 25.3435C23.4275 25.3435 24.1522 26.1775 24.1367 27.1945C24.1381 28.2101 23.4275 29.044 22.5284 29.044ZM28.4717 29.044C27.5881 29.044 26.8635 28.2101 26.8635 27.1945C26.8635 26.1789 27.5726 25.3435 28.4717 25.3435C29.3708 25.3435 30.0954 26.1775 30.0799 27.1945C30.0799 28.2101 29.3708 29.044 28.4717 29.044Z" fill="white"/>
<path d="M55.0469 34.7109C52.1406 34.7109 49.8672 32.3906 49.8672 28.1484C49.8672 23.7891 52.2344 21.6094 55.0469 21.6094C57.1797 21.6094 58.1875 22.875 58.6562 23.9062H58.7734V17.5312H62.2422V34.5H58.8203V32.4609H58.6562C58.1641 33.5156 57.1094 34.7109 55.0469 34.7109ZM56.125 31.9453C57.8594 31.9453 58.8438 30.4219 58.8438 28.125C58.8438 25.8281 57.8594 24.375 56.125 24.375C54.3672 24.375 53.4297 25.8984 53.4297 28.125C53.4297 30.375 54.3672 31.9453 56.125 31.9453ZM65.0312 34.5V21.7734H68.5V34.5H65.0312ZM66.7656 20.1094C65.7109 20.1094 64.8672 19.3125 64.8672 18.3516C64.8672 17.3672 65.7109 16.5703 66.7656 16.5703C67.7969 16.5703 68.6406 17.3672 68.6406 18.3516C68.6406 19.3125 67.7969 20.1094 66.7656 20.1094ZM78.4609 25.5469C78.3203 24.6562 77.5234 24.0703 76.375 24.0703C75.25 24.0703 74.3828 24.6094 74.4062 25.3828C74.3828 25.9453 74.8516 26.3906 76.0469 26.6484L78.3203 27.1172C80.7812 27.6328 81.9766 28.7344 82 30.5625C81.9766 33.0703 79.7266 34.7578 76.3516 34.7578C72.9062 34.7578 70.8906 33.2109 70.6094 30.7266H74.1016C74.2656 31.7344 75.0859 32.25 76.3516 32.25C77.6172 32.25 78.4609 31.7344 78.4609 30.9141C78.4609 30.2578 77.9219 29.8594 76.7266 29.6016L74.6172 29.1797C72.2031 28.7109 70.9375 27.4453 70.9609 25.5703C70.9375 23.1328 73.0469 21.6094 76.3281 21.6094C79.5391 21.6094 81.5312 23.1328 81.7188 25.5469H78.4609ZM89.8516 34.7578C85.9609 34.7578 83.6172 32.0625 83.6172 28.1719C83.6172 24.2812 85.9844 21.6094 89.8516 21.6094C93.1328 21.6094 95.3594 23.5312 95.5 26.4375H92.2422C92.0312 25.1719 91.2109 24.3047 89.8984 24.3047C88.2344 24.3047 87.1328 25.7109 87.1328 28.125C87.1328 30.5859 88.2109 31.9922 89.8984 31.9922C91.1172 31.9922 92.0312 31.2422 92.2422 29.8828H95.5C95.3359 32.7656 93.2266 34.7578 89.8516 34.7578ZM103.375 34.7578C99.5312 34.7578 97.1406 32.1094 97.1406 28.1719C97.1406 24.2344 99.5312 21.6094 103.375 21.6094C107.219 21.6094 109.633 24.2344 109.633 28.1719C109.633 32.1094 107.219 34.7578 103.375 34.7578ZM103.398 32.0625C105.18 32.0625 106.094 30.3984 106.094 28.1719C106.094 25.9219 105.18 24.2578 103.398 24.2578C101.594 24.2578 100.656 25.9219 100.656 28.1719C100.656 30.3984 101.594 32.0625 103.398 32.0625ZM111.812 34.5V21.7734H115.164V23.9766H115.305C115.773 22.4062 116.945 21.5859 118.375 21.5859C118.727 21.5859 119.172 21.6328 119.477 21.7031V24.7969C119.148 24.7031 118.492 24.6094 118 24.6094C116.43 24.6094 115.281 25.7109 115.281 27.2578V34.5H111.812ZM125.453 34.7109C122.547 34.7109 120.273 32.3906 120.273 28.1484C120.273 23.7891 122.641 21.6094 125.453 21.6094C127.586 21.6094 128.594 22.875 129.062 23.9062H129.18V17.5312H132.648V34.5H129.227V32.4609H129.062C128.57 33.5156 127.516 34.7109 125.453 34.7109ZM126.531 31.9453C128.266 31.9453 129.25 30.4219 129.25 28.125C129.25 25.8281 128.266 24.375 126.531 24.375C124.773 24.375 123.836 25.8984 123.836 28.125C123.836 30.375 124.773 31.9453 126.531 31.9453Z" fill="black"/>
</svg>
