<svg width="140" height="52" viewBox="0 0 140 52" fill="none" xmlns="http://www.w3.org/2000/svg">
<rect x="0.5" y="0.5" width="139" height="51" rx="12.5" fill="white"/>
<rect x="0.5" y="0.5" width="139" height="51" rx="12.5" stroke="#DEDEDE"/>
<path fill-rule="evenodd" clip-rule="evenodd" d="M26.5 11C17.9362 11 11 17.8823 11 26.3794C11 33.1848 15.4369 38.9328 21.5981 40.9706C22.3731 41.1052 22.6638 40.6438 22.6638 40.2401C22.6638 39.8748 22.6444 38.6637 22.6444 37.3757C18.75 38.087 17.7425 36.4337 17.4325 35.5686C17.2581 35.1264 16.5025 33.7615 15.8438 33.3963C15.3012 33.1079 14.5263 32.3966 15.8244 32.3774C17.045 32.3582 17.9169 33.4924 18.2075 33.9538C19.6025 36.2799 21.8306 35.6263 22.7219 35.2226C22.8575 34.2229 23.2644 33.5501 23.71 33.1656C20.2613 32.7811 16.6575 31.4546 16.6575 25.572C16.6575 23.8995 17.2581 22.5153 18.2463 21.4388C18.0913 21.0543 17.5488 19.4779 18.4013 17.3632C18.4013 17.3632 19.6994 16.9595 22.6638 18.9396C23.9038 18.5936 25.2213 18.4206 26.5388 18.4206C27.8563 18.4206 29.1738 18.5936 30.4138 18.9396C33.3781 16.9403 34.6763 17.3632 34.6763 17.3632C35.5288 19.4779 34.9863 21.0543 34.8313 21.4388C35.8194 22.5153 36.42 23.8803 36.42 25.572C36.42 31.4738 32.7969 32.7811 29.3481 33.1656C29.91 33.6462 30.3944 34.5689 30.3944 36.0108C30.3944 38.0678 30.375 39.721 30.375 40.2401C30.375 40.6438 30.6656 41.1244 31.4406 40.9706C37.5631 38.9328 42 33.1656 42 26.3794C42 17.8823 35.0638 11 26.5 11Z" fill="#1B1F23"/>
<path d="M57.0781 39.5391C53.5625 39.5391 51.4062 37.9688 51.1953 35.5547H54.6172C54.8047 36.5625 55.7656 37.0312 57.1484 37.0312C58.7656 37.0312 59.8438 36.3516 59.8438 34.5703V32.25H59.6797C59.2109 33.2812 58.0859 34.3125 56.0469 34.3125C53.1641 34.3125 50.8672 32.2969 50.8672 28.0547C50.8672 23.7422 53.2344 21.6094 56.0469 21.6094C58.1797 21.6094 59.2109 22.875 59.6797 23.9062H59.8203V21.7734H63.2656V34.6406C63.2656 37.875 60.6875 39.5391 57.0781 39.5391ZM57.125 31.7109C58.8594 31.7109 59.8438 30.3516 59.8438 28.1016C59.8438 25.8281 58.8594 24.375 57.125 24.375C55.3672 24.375 54.4297 25.8984 54.4297 28.1016C54.4297 30.3047 55.3672 31.7109 57.125 31.7109ZM65.9609 34.5V21.7734H69.4297V34.5H65.9609ZM67.6953 20.1094C66.6406 20.1094 65.7969 19.3125 65.7969 18.3516C65.7969 17.3672 66.6406 16.5703 67.6953 16.5703C68.7266 16.5703 69.5703 17.3672 69.5703 18.3516C69.5703 19.3125 68.7266 20.1094 67.6953 20.1094ZM78.8281 21.7734V24.375H76.4375V30.5859C76.4375 31.5938 76.9297 31.8516 77.6328 31.875C77.9844 31.875 78.5938 31.8516 79.0156 31.8047V34.5469C78.6406 34.6172 78.0312 34.6641 77.1641 34.6641C74.6562 34.6641 72.9453 33.5391 72.9688 31.0781V24.375H71.2109V21.7734H72.9688V18.7266H76.4375V21.7734H78.8281ZM84.7578 27.1406V34.5H81.2891V17.5312H84.6641V24H84.8047C85.3906 22.5234 86.6797 21.6094 88.6016 21.6094C91.25 21.6094 93.0078 23.3906 93.0078 26.3906V34.5H89.5391V27C89.5391 25.4297 88.6953 24.4922 87.2422 24.4922C85.7891 24.4922 84.7578 25.4531 84.7578 27.1406ZM103.836 29.0859V21.7734H107.305V34.5H103.977V32.2031H103.836C103.25 33.6797 101.891 34.6641 99.9688 34.6641C97.4141 34.6641 95.6797 32.8594 95.6797 29.8828V21.7734H99.1484V29.2734C99.1484 30.7734 100.016 31.7344 101.375 31.7344C102.641 31.7344 103.836 30.8203 103.836 29.0859ZM110.07 34.5V17.5312H113.539V23.9062H113.633C114.125 22.875 115.133 21.6094 117.266 21.6094C120.078 21.6094 122.445 23.7891 122.445 28.1484C122.445 32.3906 120.172 34.7109 117.266 34.7109C115.18 34.7109 114.125 33.5156 113.633 32.4609H113.492V34.5H110.07ZM113.469 28.125C113.469 30.4219 114.453 31.9453 116.164 31.9453C117.945 31.9453 118.883 30.375 118.883 28.125C118.883 25.8984 117.945 24.375 116.164 24.375C114.43 24.375 113.469 25.8281 113.469 28.125Z" fill="black"/>
</svg>
