<svg width="200" height="52" viewBox="0 0 200 52" fill="none" xmlns="http://www.w3.org/2000/svg">
<rect x="0.5" y="0.5" width="199" height="51" rx="12.5" fill="white"/>
<rect x="0.5" y="0.5" width="199" height="51" rx="12.5" stroke="#DEDEDE"/>
<rect x="11" y="11" width="56" height="30" rx="6" fill="#17CE3A"/>
<path d="M24.1884 30.872L29.3794 19.3007C29.7368 18.5034 30.4004 18.02 31.2928 18.02H31.4846C32.3782 18.02 33.0167 18.5034 33.3777 19.3007L38.5687 30.872C38.672 31.0742 38.7301 31.296 38.7391 31.5223C38.7426 31.7253 38.7051 31.9268 38.6288 32.1153C38.5525 32.3038 38.439 32.4754 38.2948 32.6202C38.1506 32.7649 37.9787 32.8798 37.7891 32.9583C37.5994 33.0367 37.3959 33.0771 37.1902 33.0771C36.4254 33.0771 35.9143 32.6349 35.6164 31.9633L34.6168 29.6536H28.0641L27.0216 32.068C26.9026 32.3672 26.6946 32.6238 26.4249 32.8039C26.1552 32.9841 25.8365 33.0793 25.5109 33.0771C25.3106 33.0774 25.1122 33.0383 24.9274 32.9622C24.7425 32.886 24.5749 32.7743 24.4343 32.6335C24.2937 32.4927 24.1828 32.3257 24.1083 32.1422C24.0338 31.9587 23.997 31.7623 24.0002 31.5647C24.0128 31.3232 24.0769 31.0872 24.1884 30.872ZM33.3992 26.7981L31.3357 21.9469L29.2722 26.7981H33.3992Z" fill="white"/>
<path d="M39.6943 25.6432V25.6008C39.6943 21.4223 42.8849 18 47.4587 18C49.6926 18 51.2033 18.588 52.4364 19.4901C52.635 19.6411 52.7958 19.8351 52.9065 20.0572C53.0172 20.2792 53.0749 20.5233 53.075 20.7708C53.0747 20.9793 53.0325 21.1857 52.9509 21.378C52.8693 21.5703 52.7499 21.7447 52.5995 21.8911C52.4492 22.0376 52.2709 22.1531 52.075 22.2311C51.8791 22.3091 51.6695 22.348 51.4583 22.3455C51.1074 22.342 50.766 22.2324 50.4801 22.0315C49.5651 21.3588 48.6072 20.9813 47.4373 20.9813C44.927 20.9813 43.1196 23.0394 43.1196 25.5585V25.6008C43.1196 28.1211 44.8853 30.2192 47.4325 30.2192C48.8157 30.2192 49.7307 29.7994 50.666 29.0643C50.8172 28.9304 50.9941 28.8277 51.1863 28.7625C51.3784 28.6973 51.5819 28.6708 51.7846 28.6847C51.9873 28.6985 52.1851 28.7524 52.3664 28.8431C52.5476 28.9339 52.7085 29.0596 52.8396 29.2128C52.9707 29.3661 53.0692 29.5438 53.1295 29.7353C53.1897 29.9269 53.2103 30.1284 53.1902 30.328C53.17 30.5276 53.1095 30.7211 53.0121 30.8972C52.9148 31.0733 52.7826 31.2282 52.6235 31.3529C51.2831 32.5078 49.7093 33.2005 47.3265 33.2005C42.9493 33.2017 39.6943 29.8664 39.6943 25.6432Z" fill="white"/>
<path d="M83.625 25.5469C83.4844 24.6562 82.6875 24.0703 81.5391 24.0703C80.4141 24.0703 79.5469 24.6094 79.5703 25.3828C79.5469 25.9453 80.0156 26.3906 81.2109 26.6484L83.4844 27.1172C85.9453 27.6328 87.1406 28.7344 87.1641 30.5625C87.1406 33.0703 84.8906 34.7578 81.5156 34.7578C78.0703 34.7578 76.0547 33.2109 75.7734 30.7266H79.2656C79.4297 31.7344 80.25 32.25 81.5156 32.25C82.7812 32.25 83.625 31.7344 83.625 30.9141C83.625 30.2578 83.0859 29.8594 81.8906 29.6016L79.7812 29.1797C77.3672 28.7109 76.1016 27.4453 76.125 25.5703C76.1016 23.1328 78.2109 21.6094 81.4922 21.6094C84.7031 21.6094 86.6953 23.1328 86.8828 25.5469H83.625ZM95.0156 34.7578C91.1719 34.7578 88.7812 32.1094 88.7812 28.1719C88.7812 24.2344 91.1719 21.6094 95.0156 21.6094C98.8594 21.6094 101.273 24.2344 101.273 28.1719C101.273 32.1094 98.8594 34.7578 95.0156 34.7578ZM95.0391 32.0625C96.8203 32.0625 97.7344 30.3984 97.7344 28.1719C97.7344 25.9219 96.8203 24.2578 95.0391 24.2578C93.2344 24.2578 92.2969 25.9219 92.2969 28.1719C92.2969 30.3984 93.2344 32.0625 95.0391 32.0625ZM106.922 17.5312V34.5H103.453V17.5312H106.922ZM121.43 21.7734L116.953 34.5H113.062L108.609 21.7734H112.266L114.938 30.9141H115.078L117.75 21.7734H121.43ZM128.461 34.7578C124.57 34.7578 122.18 32.2266 122.18 28.1953C122.18 24.2578 124.594 21.6094 128.32 21.6094C131.672 21.6094 134.297 23.7188 134.297 28.0547V29.0391H125.602C125.602 30.9609 126.75 32.1562 128.531 32.1562C129.703 32.1562 130.547 31.6406 130.898 30.8672H134.203C133.711 33.2109 131.602 34.7578 128.461 34.7578ZM125.602 26.8594H131.016C131.016 25.3125 129.938 24.2109 128.391 24.2109C126.797 24.2109 125.66 25.3945 125.602 26.8594ZM141.164 34.7109C138.258 34.7109 135.984 32.3906 135.984 28.1484C135.984 23.7891 138.352 21.6094 141.164 21.6094C143.297 21.6094 144.305 22.875 144.773 23.9062H144.891V17.5312H148.359V34.5H144.938V32.4609H144.773C144.281 33.5156 143.227 34.7109 141.164 34.7109ZM142.242 31.9453C143.977 31.9453 144.961 30.4219 144.961 28.125C144.961 25.8281 143.977 24.375 142.242 24.375C140.484 24.375 139.547 25.8984 139.547 28.125C139.547 30.375 140.484 31.9453 142.242 31.9453ZM153.188 34.7109C152.086 34.7109 151.195 33.8203 151.219 32.7422C151.195 31.6641 152.086 30.7969 153.188 30.7969C154.219 30.7969 155.133 31.6641 155.133 32.7422C155.133 33.8203 154.219 34.7109 153.188 34.7109ZM157.312 30.9375C157.312 28.1016 159.609 27.1641 162.047 27.0234C162.961 26.9648 164.672 26.8828 165.211 26.8594V25.8281C165.188 24.7734 164.461 24.1406 163.172 24.1406C162 24.1406 161.25 24.6797 161.062 25.5469H157.758C157.969 23.3438 159.891 21.6094 163.266 21.6094C166.031 21.6094 168.656 22.8516 168.656 25.9219V34.5H165.375V32.7422H165.281C164.648 33.9141 163.453 34.7344 161.555 34.7344C159.117 34.7344 157.312 33.4688 157.312 30.9375ZM160.641 30.8438C160.641 31.8281 161.438 32.3438 162.539 32.3438C164.109 32.3438 165.234 31.2891 165.211 29.9531V29.0156C164.684 29.0391 163.207 29.1211 162.609 29.1797C161.414 29.2969 160.641 29.8594 160.641 30.8438ZM177.023 34.7578C173.133 34.7578 170.789 32.0625 170.789 28.1719C170.789 24.2812 173.156 21.6094 177.023 21.6094C180.305 21.6094 182.531 23.5312 182.672 26.4375H179.414C179.203 25.1719 178.383 24.3047 177.07 24.3047C175.406 24.3047 174.305 25.7109 174.305 28.125C174.305 30.5859 175.383 31.9922 177.07 31.9922C178.289 31.9922 179.203 31.2422 179.414 29.8828H182.672C182.508 32.7656 180.398 34.7578 177.023 34.7578Z" fill="black"/>
</svg>
